<svg xmlns="http://www.w3.org/2000/svg" viewBox="0 0 64 64">
  <rect width="64" height="64" rx="14" fill="#eff6ff"/>
  <path d="M15 25h34l-3 27a5 5 0 0 1-5 4H23a5 5 0 0 1-5-4z" fill="#2563eb"/>
  <path d="M12 21a4 4 0 0 1 4-4h32a4 4 0 0 1 4 4v7H12z" fill="#60a5fa"/>
  <path d="M12 28h40" fill="none" stroke="#1e40af" stroke-width="4"/>
  <path d="m22 17-2-8 6-1 2 9" fill="#f59e0b" stroke="#b45309" stroke-width="2" stroke-linejoin="round"/>
  <path d="m34 17 3-10 6 2-3 8" fill="#f43f5e" stroke="#be123c" stroke-width="2" stroke-linejoin="round"/>
  <circle cx="48" cy="13" r="5" fill="#34d399" stroke="#047857" stroke-width="2"/>
  <rect x="25" y="35" width="14" height="10" rx="3" fill="#dbeafe"/>
  <path d="M29 40h6" stroke="#1e40af" stroke-width="2" stroke-linecap="round"/>
</svg>
